# xmcd
# Copyright (C) 1995-1998 Ti Kan
#
# Track frame offsets:
#       150
#       15560
#       43190
#       66598
#       76394
#       96651
#       110456
#       123939
#       140869
#       153169
#       166939
#       181521
#       193668
#       205728
#       216833
#       228258
#
# Disc length: 3520 seconds
#
# Revision: 0
# Processed by: cddbd v1.5.2PL0 Copyright (c) Steve Scherf et al.
# Submitted via: CD-Import v1.0
#
DISCID=de0dbe10
DTITLE=Andrew - Jazz Compilation
DYEAR=1900
DGENRE=
TTITLE0=C-Jam Blues
TTITLE1=Ogd
TTITLE2=Mr. Paganini
TTITLE3=I Say A Little Prayer
TTITLE4=Afro Blue
TTITLE5=One Room Country Shack
TTITLE6=There Will Never Be Another You
TTITLE7=So Danco Samba
TTITLE8=They Can't Take That Away
TTITLE9=Fever
TTITLE10=Night And Day
TTITLE11=Angu
TTITLE12=Stone Cold Dead In The Market
TTITLE13=Moonlight Serenade
TTITLE14=Sing Hallelujah
TTITLE15=Portrait Of All Thise Beautifull Ladies
EXTD=
EXTT0=
EXTT1=
EXTT2=
EXTT3=
EXTT4=
EXTT5=
EXTT6=
EXTT7=
EXTT8=
EXTT9=
EXTT10=
EXTT11=
EXTT12=
EXTT13=
EXTT14=
EXTT15=
PLAYORDER=
